<svg width="7" height="7" viewBox="0 0 25 24" fill="none" xmlns="http://www.w3.org/2000/svg">
<path d="M15.5542 12.3836C16.9824 11.3363 17.9345 9.67011 17.9345 7.81348C17.9821 4.71911 15.5066 2.1484 12.4599 2.00558C9.17507 1.86276 6.50914 4.48108 6.50914 7.71827C6.50914 9.6225 7.46126 11.3363 8.88943 12.3836C5.27139 13.7166 2.70068 17.1918 2.70068 21.2859C2.70068 21.4287 2.70068 21.6192 2.70068 21.762C2.70068 21.9048 2.7959 22 2.93871 22H4.84294C4.98576 22 5.08097 21.9048 5.08097 21.762C5.08097 21.6192 5.08097 21.4763 5.08097 21.2859C5.08097 17.3346 8.27056 14.145 12.2218 14.145C16.1731 14.145 19.3627 17.3346 19.3627 21.2859C19.3627 21.4287 19.3627 21.5715 19.3627 21.762C19.3627 21.9048 19.4579 22 19.6007 22H21.505C21.6478 22 21.743 21.9048 21.743 21.762C21.743 21.6192 21.743 21.4287 21.743 21.2859C21.743 17.1918 19.1723 13.7166 15.5542 12.3836ZM12.2218 11.0507C10.3652 11.0507 8.88943 9.5749 8.88943 7.71827C8.88943 5.86165 10.3652 4.38587 12.2218 4.38587C14.0785 4.38587 15.5542 5.86165 15.5542 7.71827C15.5542 9.5749 14.0785 11.0507 12.2218 11.0507Z" fill="#17181A"/>
</svg>

