<svg width="24" height="24" viewBox="0 0 24 24" fill="none" xmlns="http://www.w3.org/2000/svg">
<path d="M21.2492 18.3494L18.262 4.14678C18.2234 3.96105 18.1484 3.78479 18.0415 3.62811C17.9345 3.47143 17.7976 3.33744 17.6387 3.23381C17.4798 3.13019 17.302 3.05899 17.1155 3.02429C16.929 2.98959 16.7375 2.99209 16.5519 3.03164L12.3389 3.93707C11.9662 4.01867 11.6408 4.24411 11.4335 4.56435C11.2262 4.88459 11.1537 5.27374 11.2318 5.64715L14.219 19.8498C14.2856 20.1738 14.4617 20.465 14.7177 20.6745C14.9738 20.884 15.2941 20.9989 15.6249 21C15.7272 20.9999 15.8291 20.989 15.9291 20.9676L20.1422 20.0622C20.5153 19.9804 20.841 19.7545 21.0483 19.4337C21.2557 19.1129 21.3279 18.7232 21.2492 18.3494ZM12.6404 5.35283C12.6404 5.34743 12.6404 5.34473 12.6404 5.34473L16.8525 4.4447L17.1523 5.87306L12.9401 6.7794L12.6404 5.35283ZM13.2362 8.18526L17.4502 7.28072L17.7508 8.71178L13.5404 9.61722L13.2362 8.18526ZM13.8338 11.0267L18.0478 10.1212L19.2448 15.8131L15.0309 16.7185L13.8338 11.0267ZM19.8407 18.6545L15.6285 19.5545L15.3288 18.1262L19.541 17.2198L19.8407 18.6464C19.8407 18.6518 19.8407 18.6545 19.8407 18.6545ZM9.76024 3.71927H5.44006C5.05813 3.71927 4.69185 3.87099 4.42178 4.14105C4.15172 4.41111 4 4.7774 4 5.15933V19.5599C4 19.9419 4.15172 20.3082 4.42178 20.5782C4.69185 20.8483 5.05813 21 5.44006 21H9.76024C10.1422 21 10.5085 20.8483 10.7785 20.5782C11.0486 20.3082 11.2003 19.9419 11.2003 19.5599V5.15933C11.2003 4.7774 11.0486 4.41111 10.7785 4.14105C10.5085 3.87099 10.1422 3.71927 9.76024 3.71927ZM5.44006 5.15933H9.76024V6.59939H5.44006V5.15933ZM5.44006 8.03945H9.76024V16.6798H5.44006V8.03945ZM9.76024 19.5599H5.44006V18.1199H9.76024V19.5599Z" fill="#17181A"/>
</svg>
