<svg  viewBox="0 0 25 24" fill="none" xmlns="http://www.w3.org/2000/svg">
<path d="M12.2219 19.3334C11.4886 18.7528 10.6941 18.3021 9.83855 17.9813C8.98299 17.6605 8.09688 17.5 7.18022 17.5C6.53855 17.5 5.90834 17.5841 5.28959 17.7521C4.67084 17.9202 4.07883 18.157 3.51355 18.4625C3.19272 18.6306 2.88334 18.623 2.58542 18.4396C2.28751 18.2563 2.13855 17.9889 2.13855 17.6375V6.59171C2.13855 6.42365 2.18056 6.26324 2.26459 6.11046C2.34862 5.95768 2.47466 5.8431 2.64272 5.76671C3.34549 5.40004 4.07883 5.12504 4.84272 4.94171C5.60661 4.75837 6.38577 4.66671 7.18022 4.66671C8.06633 4.66671 8.93334 4.78129 9.78126 5.01046C10.6292 5.23962 11.4427 5.58337 12.2219 6.04171V17.6375C13.0011 17.1334 13.8184 16.7552 14.674 16.5032C15.5295 16.2511 16.3927 16.125 17.2636 16.125C17.8136 16.125 18.4132 16.1785 19.0625 16.2855C19.7118 16.3924 20.3344 16.6139 20.9302 16.95V5.37712C21.083 5.43824 21.232 5.49935 21.3771 5.56046C21.5222 5.62157 21.6636 5.69032 21.8011 5.76671C21.9538 5.85837 22.0761 5.97678 22.1677 6.12192C22.2594 6.26705 22.3052 6.42365 22.3052 6.59171V17.6375C22.3052 17.9889 22.1563 18.2563 21.8583 18.4396C21.5604 18.623 21.2511 18.6306 20.9302 18.4625C20.3649 18.157 19.7729 17.9202 19.1542 17.7521C18.5354 17.5841 17.9052 17.5 17.2636 17.5C16.3469 17.5 15.4608 17.6605 14.6052 17.9813C13.7497 18.3021 12.9552 18.7528 12.2219 19.3334ZM13.5969 15.5063V7.41671L19.5552 1.45837V10.3271L13.5969 15.5063Z" fill="#17181A"/>
</svg>
