<svg width="20" height="20" viewBox="0 0 20 20" fill="none" xmlns="http://www.w3.org/2000/svg">
<path d="M14.375 2.5H5.625C5.29348 2.5 4.97554 2.6317 4.74112 2.86612C4.5067 3.10054 4.375 3.41848 4.375 3.75V17.5C4.37506 17.6115 4.40496 17.721 4.46161 17.8171C4.51826 17.9132 4.59959 17.9924 4.69716 18.0464C4.79473 18.1005 4.90498 18.1274 5.01648 18.1245C5.12798 18.1215 5.23666 18.0888 5.33125 18.0297L10 15.1117L14.6695 18.0297C14.7641 18.0886 14.8727 18.1212 14.9841 18.124C15.0955 18.1268 15.2056 18.0998 15.303 18.0458C15.4005 17.9918 15.4817 17.9127 15.5383 17.8167C15.5949 17.7208 15.6249 17.6114 15.625 17.5V3.75C15.625 3.41848 15.4933 3.10054 15.2589 2.86612C15.0245 2.6317 14.7065 2.5 14.375 2.5ZM14.375 16.3727L10.3305 13.8453C10.2311 13.7832 10.1164 13.7503 9.99922 13.7503C9.88208 13.7503 9.7673 13.7832 9.66797 13.8453L5.625 16.3727V3.75H14.375V16.3727Z" fill="#9D9D95"/>
</svg>
