<svg width="20" height="20" viewBox="0 0 20 20" fill="none" xmlns="http://www.w3.org/2000/svg">
<path d="M8.33268 4.16667C8.33268 5.08714 9.07887 5.83333 9.99935 5.83333C10.9198 5.83333 11.666 5.08714 11.666 4.16667C11.666 3.24619 10.9198 2.5 9.99935 2.5C9.07887 2.5 8.33268 3.24619 8.33268 4.16667Z" fill="#9D9D95"/>
<path d="M8.33268 9.99967C8.33268 10.9201 9.07887 11.6663 9.99935 11.6663C10.9198 11.6663 11.666 10.9201 11.666 9.99967C11.666 9.0792 10.9198 8.33301 9.99935 8.33301C9.07887 8.33301 8.33268 9.0792 8.33268 9.99967Z" fill="#9D9D95"/>
<path d="M8.33268 15.8337C8.33268 16.7541 9.07887 17.5003 9.99935 17.5003C10.9198 17.5003 11.666 16.7541 11.666 15.8337C11.666 14.9132 10.9198 14.167 9.99935 14.167C9.07887 14.167 8.33268 14.9132 8.33268 15.8337Z" fill="#9D9D95"/>
</svg>
